SplineFontDB: 3.2
FontName: QuestListsIcons
FullName: QuestLists Icons
FamilyName: QuestLists Icons
Weight: Regular
Copyright: Copyright (c) 2021, Samuel Tyler
UComments: "2021-12-2: Created with FontForge (http://fontforge.org)"
Version: 1.0
DefaultBaseFilename: QuestLists-Icons
ItalicAngle: 0
UnderlinePosition: -102
UnderlineWidth: 51
Ascent: 819
Descent: 205
InvalidEm: 0
LayerCount: 4
Layer: 0 0 "Back" 1
Layer: 1 0 "Fore" 0
Layer: 2 0 "Mtn L" 1
Layer: 3 0 "Mtn R" 1
XUID: [1021 774 979781558 8931670]
StyleMap: 0x0040
FSType: 0
OS2Version: 1
OS2_WeightWidthSlopeOnly: 0
OS2_UseTypoMetrics: 1
CreationTime: 1638458673
ModificationTime: 1638482923
PfmFamily: 17
TTFWeight: 400
TTFWidth: 5
LineGap: 92
VLineGap: 0
OS2TypoAscent: 0
OS2TypoAOffset: 1
OS2TypoDescent: 0
OS2TypoDOffset: 1
OS2TypoLinegap: 92
OS2WinAscent: 0
OS2WinAOffset: 1
OS2WinDescent: 0
OS2WinDOffset: 1
HheadAscent: 0
HheadAOffset: 1
HheadDescent: 0
HheadDOffset: 1
OS2Vendor: 'PfEd'
MarkAttachClasses: 1
DEI: 91125
LangName: 1033
Encoding: Custom
UnicodeInterp: none
NameList: AGL For New Fonts
DisplaySize: -72
AntiAlias: 1
FitToEm: 0
WinInfo: 0 13 4
BeginPrivate: 0
EndPrivate
TeXData: 1 0 0 346030 173015 115343 635904 1048576 115343 783286 444596 497025 792723 393216 433062 380633 303038 157286 324010 404750 52429 2506097 1059062 262144
BeginChars: 55 55

StartChar: plus
Encoding: 1 43 0
Width: 1000
VWidth: 1000
Flags: HW
LayerCount: 4
Fore
SplineSet
309 383 m 1
 309 447 l 1
 266 447 l 1
 266 383 l 1
 202 383 l 1
 202 340 l 1
 266 340 l 1
 266 276 l 1
 309 276 l 1
 309 340 l 1
 373 340 l 1
 373 383 l 1
 309 383 l 1
616 249 m 0
 616 327 681 391 759 391 c 0
 837 391 902 327 902 249 c 0
 953 246 l 0
 953 351 869 449 760 449 c 0
 651 449 556 351 556 246 c 0
 616 249 l 0
409 311 m 0
 409 233 474 169 552 169 c 0
 630 169 695 233 695 311 c 0
 746 314 l 0
 746 209 662 111 553 111 c 0
 444 111 349 209 349 314 c 0
 409 311 l 0
42 369 m 0
 42 500 158 606 294 606 c 0
 430 606 538 500 538 369 c 0
 538 238 433 115 297 115 c 0
 161 115 42 238 42 369 c 0
117 365 m 0
 117 267 197 187 295 187 c 0
 393 187 474 267 474 365 c 0
 474 463 393 543 295 543 c 0
 197 543 117 463 117 365 c 0
EndSplineSet
EndChar

StartChar: zero
Encoding: 3 48 1
Width: 1000
VWidth: 1000
Flags: HW
LayerCount: 4
Fore
SplineSet
616 249 m 4
 616 327 681 391 759 391 c 4
 837 391 902 327 902 249 c 4
 953 246 l 4
 953 351 869 449 760 449 c 4
 651 449 556 351 556 246 c 4
 616 249 l 4
409 311 m 4
 409 233 474 169 552 169 c 4
 630 169 695 233 695 311 c 4
 746 314 l 4
 746 209 662 111 553 111 c 4
 444 111 349 209 349 314 c 4
 409 311 l 4
42 369 m 4
 42 500 158 606 294 606 c 4
 430 606 538 500 538 369 c 4
 538 238 433 115 297 115 c 4
 161 115 42 238 42 369 c 4
117 365 m 4
 117 267 197 187 295 187 c 4
 393 187 474 267 474 365 c 4
 474 463 393 543 295 543 c 4
 197 543 117 463 117 365 c 4
EndSplineSet
EndChar

StartChar: ballotx
Encoding: 0 10007 2
Width: 1000
VWidth: 1000
Flags: HW
LayerCount: 4
Fore
SplineSet
117 365 m 0
 117 267 197 187 295 187 c 0
 393 187 474 267 474 365 c 0
 474 463 393 543 295 543 c 0
 197 543 117 463 117 365 c 0
42 369 m 0
 42 500 158 606 294 606 c 0
 430 606 538 500 538 369 c 0
 538 238 433 115 297 115 c 0
 161 115 42 238 42 369 c 0
616 249 m 0
 616 327 681 391 759 391 c 0
 837 391 902 327 902 249 c 0
 953 246 l 0
 953 351 869 449 760 449 c 0
 651 449 556 351 556 246 c 0
 616 249 l 0
409 311 m 1
 409 233 474 169 552 169 c 0
 630 169 695 233 695 311 c 1
 746 314 l 1
 746 209 662 111 553 111 c 0
 455.508783018 111 369.217256588 189.397833859 352.081900653 281.081900653 c 1
 380 309 l 1
 376.368421053 312.631578947 l 1
 409 311 l 1
380 400 m 1
 350 430 l 1
 304 385 l 1
 259 430 l 1
 229 400 l 1
 274 355 l 1
 229 309 l 1
 259 279 l 1
 304 325 l 1
 350 279 l 1
 352.081900653 281.081900653 l 1
 350.059081578 291.905152876 349 302.913557643 349 314 c 1
 376.368421053 312.631578947 l 1
 334 355 l 1
 380 400 l 1
EndSplineSet
EndChar

StartChar: hyphen
Encoding: 2 45 3
Width: 1000
VWidth: 1000
Flags: HW
LayerCount: 4
Fore
SplineSet
205 389 m 5
 205 346 l 5
 376 346 l 5
 376 389 l 5
 205 389 l 5
616 249 m 0
 616 327 681 391 759 391 c 0
 837 391 902 327 902 249 c 0
 953 246 l 0
 953 351 869 449 760 449 c 0
 651 449 556 351 556 246 c 0
 616 249 l 0
409 311 m 0
 409 233 474 169 552 169 c 0
 630 169 695 233 695 311 c 0
 746 314 l 0
 746 209 662 111 553 111 c 0
 444 111 349 209 349 314 c 0
 409 311 l 0
42 369 m 0
 42 500 158 606 294 606 c 0
 430 606 538 500 538 369 c 0
 538 238 433 115 297 115 c 0
 161 115 42 238 42 369 c 0
117 365 m 0
 117 267 197 187 295 187 c 0
 393 187 474 267 474 365 c 0
 474 463 393 543 295 543 c 0
 197 543 117 463 117 365 c 0
EndSplineSet
EndChar

StartChar: x
Encoding: 6 120 4
Width: 1024
Flags: HW
LayerCount: 4
Fore
SplineSet
120 374 m 0
 120 274 202 191 302 191 c 0
 402 191 485 274 485 374 c 0
 485 474 402 556 302 556 c 0
 202 556 120 474 120 374 c 0
43 378 m 0
 43 512 162 621 301 621 c 0
 440 621 551 512 551 378 c 0
 551 244 443 118 304 118 c 0
 165 118 43 244 43 378 c 0
631 255 m 0
 631 335 697 400 777 400 c 0
 857 400 924 335 924 255 c 0
 976 252 l 0
 976 360 890 460 778 460 c 0
 666 460 569 360 569 252 c 0
 631 255 l 0
419 318 m 1
 419 238 485 173 565 173 c 0
 645 173 712 238 712 318 c 1
 764 322 l 1
 764 214 678 114 566 114 c 0
 466 114 379 194 361 288 c 1
 389 316 l 1
 385 320 l 1
 419 318 l 1
389 410 m 1
 358 440 l 1
 311 394 l 1
 265 440 l 1
 234 410 l 1
 281 364 l 1
 234 316 l 1
 265 286 l 1
 311 333 l 1
 358 286 l 1
 361 288 l 1
 359 299 357 311 357 322 c 1
 385 320 l 1
 342 364 l 1
 389 410 l 1
EndSplineSet
Validated: 5
EndChar

StartChar: Q
Encoding: 4 81 5
Width: 1000
VWidth: 1000
Flags: HW
LayerCount: 4
Fore
SplineSet
616 249 m 4
 616 327 681 391 759 391 c 4
 837 391 902 327 902 249 c 4
 953 246 l 4
 953 351 869 449 760 449 c 4
 651 449 556 351 556 246 c 4
 616 249 l 4
409 311 m 4
 409 233 474 169 552 169 c 4
 630 169 695 233 695 311 c 4
 746 314 l 4
 746 209 662 111 553 111 c 4
 444 111 349 209 349 314 c 4
 409 311 l 4
42 369 m 4
 42 500 158 606 294 606 c 4
 430 606 538 500 538 369 c 4
 538 238 433 115 297 115 c 4
 161 115 42 238 42 369 c 4
117 365 m 4
 117 267 197 187 295 187 c 4
 393 187 474 267 474 365 c 4
 474 463 393 543 295 543 c 4
 197 543 117 463 117 365 c 4
EndSplineSet
EndChar

StartChar: p
Encoding: 5 112 6
Width: 1000
VWidth: 1000
Flags: HW
LayerCount: 4
Fore
SplineSet
391 331 m 2
 391.666992188 331 392 330.5 392 329.5 c 128
 392 328.5 391.666992188 327.666992188 391 327 c 2
 369 290 l 2
 367.666992188 288.666992188 365.666992188 288 363 288 c 2
 337 297 l 1
 320 286 l 1
 316 258 l 2
 316 257.333007812 315.5 256.5 314.5 255.5 c 128
 313.5 254.5 312.666992188 254 312 254 c 2
 269 254 l 2
 267.666992188 254 265.666992188 255.333007812 263 258 c 2
 258 286 l 1
 252 288 246.333007812 291.666992188 241 297 c 1
 216 286 l 2
 213.333007812 286 211 286.666992188 209 288 c 2
 188 324 l 2
 186.666992188 326 187.333007812 328.333007812 190 331 c 2
 214 348 l 1
 214 369 l 1
 190 386 l 2
 188.666992188 387.333007812 188 389.666992188 188 393 c 2
 209 429 l 2
 211 430.333007812 213.333007812 431 216 431 c 2
 241 420 l 1
 258 431 l 1
 263 459 l 2
 263 461.666992188 265 463 269 463 c 2
 312 463 l 2
 312.666992188 463 313.5 462.5 314.5 461.5 c 128
 315.5 460.5 316 459.666992188 316 459 c 2
 320 431 l 1
 324.666992188 429.666992188 331.333007812 426 340 420 c 1
 365 431 l 2
 369.666992188 431 372 430.333007812 372 429 c 2
 393 393 l 2
 394.333007812 391.666992188 393.666992188 389.333007812 391 386 c 2
 367 369 l 1
 367 348 l 1
 391 331 l 2
320 361 m 0
 320 369 316.833007812 376.333007812 310.5 383 c 128
 304.166992188 389.666992188 296.833007812 393 288.5 393 c 128
 280.166992188 393 272.666992188 389.666992188 266 383 c 128
 259.333007812 376.333007812 256 368.833007812 256 360.5 c 128
 256 352.166992188 259.333007812 344.833007812 266 338.5 c 128
 272.666992188 332.166992188 280.166992188 329 288.5 329 c 128
 296.833007812 329 304.166992188 332.166992188 310.5 338.5 c 128
 316.833007812 344.833007812 320 352.333007812 320 361 c 0
616 249 m 0
 616 327 681 391 759 391 c 0
 837 391 902 327 902 249 c 0
 953 246 l 0
 953 351 869 449 760 449 c 0
 651 449 556 351 556 246 c 0
 616 249 l 0
409 311 m 0
 409 233 474 169 552 169 c 0
 630 169 695 233 695 311 c 0
 746 314 l 0
 746 209 662 111 553 111 c 0
 444 111 349 209 349 314 c 0
 409 311 l 0
42 369 m 0
 42 500 158 606 294 606 c 0
 430 606 538 500 538 369 c 0
 538 238 433 115 297 115 c 0
 161 115 42 238 42 369 c 0
117 365 m 0
 117 267 197 187 295 187 c 0
 393 187 474 267 474 365 c 0
 474 463 393 543 295 543 c 0
 197 543 117 463 117 365 c 0
EndSplineSet
EndChar

StartChar: checkmark
Encoding: 7 10003 7
Width: 1024
Flags: HW
LayerCount: 4
Fore
SplineSet
358 451 m 1
 281 372 l 1
 246 407 l 1
 220 382 l 1
 281 316 l 1
 384 420 l 1
 358 451 l 1
631 255 m 0
 631 335 697 400 777 400 c 0
 857 400 924 335 924 255 c 0
 976 252 l 0
 976 360 890 460 778 460 c 0
 666 460 569 360 569 252 c 0
 631 255 l 0
419 318 m 0
 419 238 485 173 565 173 c 0
 645 173 712 238 712 318 c 0
 764 322 l 0
 764 214 678 114 566 114 c 0
 454 114 357 214 357 322 c 0
 419 318 l 0
43 378 m 0
 43 512 162 621 301 621 c 0
 440 621 551 512 551 378 c 0
 551 244 443 118 304 118 c 0
 165 118 43 244 43 378 c 0
120 374 m 0
 120 274 202 191 302 191 c 0
 402 191 485 274 485 374 c 0
 485 474 402 556 302 556 c 0
 202 556 120 474 120 374 c 0
EndSplineSet
Validated: 5
EndChar

StartChar: uni2718
Encoding: 8 10008 8
Width: 1024
Flags: HW
LayerCount: 4
Fore
SplineSet
120 374 m 0
 120 274 202 191 302 191 c 0
 402 191 485 274 485 374 c 0
 485 474 402 556 302 556 c 0
 202 556 120 474 120 374 c 0
43 378 m 0
 43 512 162 621 301 621 c 0
 440 621 551 512 551 378 c 0
 551 244 443 118 304 118 c 0
 165 118 43 244 43 378 c 0
631 255 m 0
 631 335 697 400 777 400 c 0
 857 400 924 335 924 255 c 0
 976 252 l 0
 976 360 890 460 778 460 c 0
 666 460 569 360 569 252 c 0
 631 255 l 0
419 318 m 1
 419 238 485 173 565 173 c 0
 645 173 712 238 712 318 c 1
 764 322 l 1
 764 214 678 114 566 114 c 0
 466 114 379 194 361 288 c 1
 389 316 l 1
 385 320 l 1
 419 318 l 1
389 410 m 1
 358 440 l 1
 311 394 l 1
 265 440 l 1
 234 410 l 1
 281 364 l 1
 234 316 l 1
 265 286 l 1
 311 333 l 1
 358 286 l 1
 361 288 l 1
 359 299 357 311 357 322 c 1
 385 320 l 1
 342 364 l 1
 389 410 l 1
EndSplineSet
Validated: 5
EndChar

StartChar: uni274C
Encoding: 9 10060 9
Width: 1024
Flags: HW
LayerCount: 4
Fore
SplineSet
120 374 m 0
 120 274 202 191 302 191 c 0
 402 191 485 274 485 374 c 0
 485 474 402 556 302 556 c 0
 202 556 120 474 120 374 c 0
43 378 m 0
 43 512 162 621 301 621 c 0
 440 621 551 512 551 378 c 0
 551 244 443 118 304 118 c 0
 165 118 43 244 43 378 c 0
631 255 m 0
 631 335 697 400 777 400 c 0
 857 400 924 335 924 255 c 0
 976 252 l 0
 976 360 890 460 778 460 c 0
 666 460 569 360 569 252 c 0
 631 255 l 0
419 318 m 1
 419 238 485 173 565 173 c 0
 645 173 712 238 712 318 c 1
 764 322 l 1
 764 214 678 114 566 114 c 0
 466 114 379 194 361 288 c 1
 389 316 l 1
 385 320 l 1
 419 318 l 1
389 410 m 1
 358 440 l 1
 311 394 l 1
 265 440 l 1
 234 410 l 1
 281 364 l 1
 234 316 l 1
 265 286 l 1
 311 333 l 1
 358 286 l 1
 361 288 l 1
 359 299 357 311 357 322 c 1
 385 320 l 1
 342 364 l 1
 389 410 l 1
EndSplineSet
Validated: 5
EndChar

StartChar: n
Encoding: 10 110 10
Width: 1024
Flags: HW
LayerCount: 4
Fore
SplineSet
78 667 m 1
 700 58 l 1
 648 8 l 1
 29 622 l 1025
29 622 m 5
 29 622 l 5
 78 667 l 5
 700 58 l 5
 648 8 l 5
 29 622 l 5
482 279 m 1025
631 255 m 0
 631 335 697 400 777 400 c 0
 857 400 924 335 924 255 c 0
 976 252 l 0
 976 360 890 460 778 460 c 0
 666 460 569 360 569 252 c 0
 631 255 l 0
419 318 m 0
 419 238 485 173 565 173 c 0
 645 173 712 238 712 318 c 0
 764 322 l 0
 764 214 678 114 566 114 c 0
 454 114 357 214 357 322 c 0
 419 318 l 0
43 378 m 0
 43 512 162 621 301 621 c 0
 440 621 551 512 551 378 c 0
 551 244 443 118 304 118 c 0
 165 118 43 244 43 378 c 0
120 374 m 0
 120 274 202 191 302 191 c 0
 402 191 485 274 485 374 c 0
 485 474 402 556 302 556 c 0
 202 556 120 474 120 374 c 0
EndSplineSet
Validated: 11
EndChar

StartChar: uni27B0
Encoding: 11 10160 11
Width: 1024
Flags: HW
LayerCount: 4
Fore
SplineSet
631 255 m 4
 631 335 697 400 777 400 c 4
 857 400 924 335 924 255 c 4
 976 252 l 4
 976 360 890 460 778 460 c 4
 666 460 569 360 569 252 c 4
 631 255 l 4
419 318 m 4
 419 238 485 173 565 173 c 4
 645 173 712 238 712 318 c 4
 764 322 l 4
 764 214 678 114 566 114 c 4
 454 114 357 214 357 322 c 4
 419 318 l 4
43 378 m 4
 43 512 162 621 301 621 c 4
 440 621 551 512 551 378 c 4
 551 244 443 118 304 118 c 4
 165 118 43 244 43 378 c 4
120 374 m 4
 120 274 202 191 302 191 c 4
 402 191 485 274 485 374 c 4
 485 474 402 556 302 556 c 4
 202 556 120 474 120 374 c 4
EndSplineSet
Validated: 5
EndChar

StartChar: uni2699
Encoding: 12 9881 12
Width: 1024
Flags: HW
LayerCount: 4
Fore
SplineSet
400 339 m 2
 401 339 401 338 401 337 c 128
 401 336 401 336 400 335 c 2
 378 297 l 2
 377 296 375 295 372 295 c 2
 345 304 l 1
 328 293 l 1
 324 264 l 2
 324 263 323 263 322 262 c 128
 321 261 320 260 319 260 c 2
 275 260 l 2
 274 260 272 261 269 264 c 2
 264 293 l 1
 258 295 252 299 247 304 c 1
 221 293 l 2
 218 293 216 294 214 295 c 2
 193 332 l 2
 192 334 192 336 195 339 c 2
 219 356 l 1
 219 378 l 1
 195 395 l 2
 194 396 193 399 193 402 c 2
 214 439 l 2
 216 440 218 441 221 441 c 2
 247 430 l 1
 264 441 l 1
 269 470 l 2
 269 473 271 474 275 474 c 2
 319 474 l 2
 320 474 321 474 322 473 c 128
 323 472 324 471 324 470 c 2
 328 441 l 1
 333 440 339 436 348 430 c 1
 374 441 l 2
 379 441 381 440 381 439 c 2
 402 402 l 2
 403 401 403 398 400 395 c 2
 376 378 l 1
 376 356 l 1
 400 339 l 2
328 370 m 0
 328 378 324 385 318 392 c 128
 312 399 304 402 295 402 c 128
 286 402 279 399 272 392 c 128
 265 385 262 378 262 369 c 128
 262 360 265 353 272 347 c 128
 279 341 286 337 295 337 c 128
 304 337 312 341 318 347 c 128
 324 353 328 361 328 370 c 0
631 255 m 0
 631 335 697 400 777 400 c 0
 857 400 924 335 924 255 c 0
 976 252 l 0
 976 360 890 460 778 460 c 0
 666 460 569 360 569 252 c 0
 631 255 l 0
419 318 m 0
 419 238 485 173 565 173 c 0
 645 173 712 238 712 318 c 0
 764 322 l 0
 764 214 678 114 566 114 c 0
 454 114 357 214 357 322 c 0
 419 318 l 0
43 378 m 0
 43 512 162 621 301 621 c 0
 440 621 551 512 551 378 c 0
 551 244 443 118 304 118 c 0
 165 118 43 244 43 378 c 0
120 374 m 0
 120 274 202 191 302 191 c 0
 402 191 485 274 485 374 c 0
 485 474 402 556 302 556 c 0
 202 556 120 474 120 374 c 0
EndSplineSet
Validated: 5
EndChar

StartChar: uni2705
Encoding: 13 9989 13
Width: 1024
Flags: HW
LayerCount: 4
Fore
SplineSet
358 451 m 1
 281 372 l 1
 246 407 l 1
 220 382 l 1
 281 316 l 1
 384 420 l 1
 358 451 l 1
631 255 m 0
 631 335 697 400 777 400 c 0
 857 400 924 335 924 255 c 0
 976 252 l 0
 976 360 890 460 778 460 c 0
 666 460 569 360 569 252 c 0
 631 255 l 0
419 318 m 0
 419 238 485 173 565 173 c 0
 645 173 712 238 712 318 c 0
 764 322 l 0
 764 214 678 114 566 114 c 0
 454 114 357 214 357 322 c 0
 419 318 l 0
43 378 m 0
 43 512 162 621 301 621 c 0
 440 621 551 512 551 378 c 0
 551 244 443 118 304 118 c 0
 165 118 43 244 43 378 c 0
120 374 m 0
 120 274 202 191 302 191 c 0
 402 191 485 274 485 374 c 0
 485 474 402 556 302 556 c 0
 202 556 120 474 120 374 c 0
EndSplineSet
Validated: 5
EndChar

StartChar: uni2714
Encoding: 14 10004 14
Width: 1024
Flags: HW
LayerCount: 4
Fore
SplineSet
358 451 m 1
 281 372 l 1
 246 407 l 1
 220 382 l 1
 281 316 l 1
 384 420 l 1
 358 451 l 1
631 255 m 0
 631 335 697 400 777 400 c 0
 857 400 924 335 924 255 c 0
 976 252 l 0
 976 360 890 460 778 460 c 0
 666 460 569 360 569 252 c 0
 631 255 l 0
419 318 m 0
 419 238 485 173 565 173 c 0
 645 173 712 238 712 318 c 0
 764 322 l 0
 764 214 678 114 566 114 c 0
 454 114 357 214 357 322 c 0
 419 318 l 0
43 378 m 0
 43 512 162 621 301 621 c 0
 440 621 551 512 551 378 c 0
 551 244 443 118 304 118 c 0
 165 118 43 244 43 378 c 0
120 374 m 0
 120 274 202 191 302 191 c 0
 402 191 485 274 485 374 c 0
 485 474 402 556 302 556 c 0
 202 556 120 474 120 374 c 0
EndSplineSet
Validated: 5
EndChar

StartChar: uni2A37
Encoding: 15 10807 15
Width: 1024
Flags: HW
LayerCount: 4
Fore
SplineSet
29 622 m 1
 29 622 l 1
 78 667 l 1
 700 58 l 1
 648 8 l 1
 29 622 l 1
482 279 m 1025
631 255 m 0
 631 335 697 400 777 400 c 0
 857 400 924 335 924 255 c 0
 976 252 l 0
 976 360 890 460 778 460 c 0
 666 460 569 360 569 252 c 0
 631 255 l 0
419 318 m 0
 419 238 485 173 565 173 c 0
 645 173 712 238 712 318 c 0
 764 322 l 0
 764 214 678 114 566 114 c 0
 454 114 357 214 357 322 c 0
 419 318 l 0
43 378 m 0
 43 512 162 621 301 621 c 0
 440 621 551 512 551 378 c 0
 551 244 443 118 304 118 c 0
 165 118 43 244 43 378 c 0
120 374 m 0
 120 274 202 191 302 191 c 0
 402 191 485 274 485 374 c 0
 485 474 402 556 302 556 c 0
 202 556 120 474 120 374 c 0
EndSplineSet
Validated: 5
EndChar

StartChar: uni270D
Encoding: 16 9997 16
Width: 1024
Flags: HW
LayerCount: 4
Fore
SplineSet
189 322 m 1
 189 278 l 1
 234 278 l 1
 369 411 l 1
 324 456 l 1
 189 322 l 1
404 464 m 2
 376 493 l 2
 374 495 371 496 368 496 c 128
 365 496 362 495 360 493 c 2
 339 471 l 1
 384 426 l 1
 404 447 l 2
 407 449 409 452 409 455 c 128
 409 458 407 461 404 464 c 2
631 255 m 0
 631 335 697 400 777 400 c 0
 857 400 924 335 924 255 c 0
 976 252 l 0
 976 360 890 460 778 460 c 0
 666 460 569 360 569 252 c 0
 631 255 l 0
419 318 m 0
 419 238 485 173 565 173 c 0
 645 173 712 238 712 318 c 0
 764 322 l 0
 764 214 678 114 566 114 c 0
 454 114 357 214 357 322 c 0
 419 318 l 0
43 378 m 0
 43 512 162 621 301 621 c 0
 440 621 551 512 551 378 c 0
 551 244 443 118 304 118 c 0
 165 118 43 244 43 378 c 0
120 374 m 0
 120 274 202 191 302 191 c 0
 402 191 485 274 485 374 c 0
 485 474 402 556 302 556 c 0
 202 556 120 474 120 374 c 0
EndSplineSet
Validated: 5
EndChar

StartChar: NameMe.17
Encoding: 17 9999 17
Width: 1024
Flags: HW
LayerCount: 4
Fore
SplineSet
189 322 m 1
 189 278 l 1
 234 278 l 1
 369 411 l 1
 324 456 l 1
 189 322 l 1
404 464 m 2
 376 493 l 2
 374 495 371 496 368 496 c 128
 365 496 362 495 360 493 c 2
 339 471 l 1
 384 426 l 1
 404 447 l 2
 407 449 409 452 409 455 c 128
 409 458 407 461 404 464 c 2
631 255 m 0
 631 335 697 400 777 400 c 0
 857 400 924 335 924 255 c 0
 976 252 l 0
 976 360 890 460 778 460 c 0
 666 460 569 360 569 252 c 0
 631 255 l 0
419 318 m 0
 419 238 485 173 565 173 c 0
 645 173 712 238 712 318 c 0
 764 322 l 0
 764 214 678 114 566 114 c 0
 454 114 357 214 357 322 c 0
 419 318 l 0
43 378 m 0
 43 512 162 621 301 621 c 0
 440 621 551 512 551 378 c 0
 551 244 443 118 304 118 c 0
 165 118 43 244 43 378 c 0
120 374 m 0
 120 274 202 191 302 191 c 0
 402 191 485 274 485 374 c 0
 485 474 402 556 302 556 c 0
 202 556 120 474 120 374 c 0
EndSplineSet
Validated: 5
EndChar

StartChar: uni2710
Encoding: 18 10000 18
Width: 1024
Flags: HW
LayerCount: 4
Fore
SplineSet
189 322 m 1
 189 278 l 1
 234 278 l 1
 369 411 l 1
 324 456 l 1
 189 322 l 1
404 464 m 2
 376 493 l 2
 374 495 371 496 368 496 c 128
 365 496 362 495 360 493 c 2
 339 471 l 1
 384 426 l 1
 404 447 l 2
 407 449 409 452 409 455 c 128
 409 458 407 461 404 464 c 2
631 255 m 0
 631 335 697 400 777 400 c 0
 857 400 924 335 924 255 c 0
 976 252 l 0
 976 360 890 460 778 460 c 0
 666 460 569 360 569 252 c 0
 631 255 l 0
419 318 m 0
 419 238 485 173 565 173 c 0
 645 173 712 238 712 318 c 0
 764 322 l 0
 764 214 678 114 566 114 c 0
 454 114 357 214 357 322 c 0
 419 318 l 0
43 378 m 0
 43 512 162 621 301 621 c 0
 440 621 551 512 551 378 c 0
 551 244 443 118 304 118 c 0
 165 118 43 244 43 378 c 0
120 374 m 0
 120 274 202 191 302 191 c 0
 402 191 485 274 485 374 c 0
 485 474 402 556 302 556 c 0
 202 556 120 474 120 374 c 0
EndSplineSet
Validated: 5
EndChar

StartChar: uni2712
Encoding: 19 10002 19
Width: 1024
Flags: HW
LayerCount: 4
Fore
SplineSet
189 322 m 1
 189 278 l 1
 234 278 l 1
 369 411 l 1
 324 456 l 1
 189 322 l 1
404 464 m 2
 376 493 l 2
 374 495 371 496 368 496 c 128
 365 496 362 495 360 493 c 2
 339 471 l 1
 384 426 l 1
 404 447 l 2
 407 449 409 452 409 455 c 128
 409 458 407 461 404 464 c 2
631 255 m 0
 631 335 697 400 777 400 c 0
 857 400 924 335 924 255 c 0
 976 252 l 0
 976 360 890 460 778 460 c 0
 666 460 569 360 569 252 c 0
 631 255 l 0
419 318 m 0
 419 238 485 173 565 173 c 0
 645 173 712 238 712 318 c 0
 764 322 l 0
 764 214 678 114 566 114 c 0
 454 114 357 214 357 322 c 0
 419 318 l 0
43 378 m 0
 43 512 162 621 301 621 c 0
 440 621 551 512 551 378 c 0
 551 244 443 118 304 118 c 0
 165 118 43 244 43 378 c 0
120 374 m 0
 120 274 202 191 302 191 c 0
 402 191 485 274 485 374 c 0
 485 474 402 556 302 556 c 0
 202 556 120 474 120 374 c 0
EndSplineSet
Validated: 5
EndChar

StartChar: uni25B7
Encoding: 20 9655 20
Width: 1024
Flags: HW
LayerCount: 4
Fore
SplineSet
260 282 m 1
 381 368 l 1
 260 452 l 1
 260 282 l 1
631 255 m 0
 631 335 697 400 777 400 c 0
 857 400 924 335 924 255 c 0
 976 252 l 0
 976 360 890 460 778 460 c 0
 666 460 569 360 569 252 c 0
 631 255 l 0
419 318 m 0
 419 238 485 173 565 173 c 0
 645 173 712 238 712 318 c 0
 764 322 l 0
 764 214 678 114 566 114 c 0
 454 114 357 214 357 322 c 0
 419 318 l 0
43 378 m 0
 43 512 162 621 301 621 c 0
 440 621 551 512 551 378 c 0
 551 244 443 118 304 118 c 0
 165 118 43 244 43 378 c 0
120 374 m 0
 120 274 202 191 302 191 c 0
 402 191 485 274 485 374 c 0
 485 474 402 556 302 556 c 0
 202 556 120 474 120 374 c 0
EndSplineSet
Validated: 5
EndChar

StartChar: NameMe.21
Encoding: 21 9654 21
Width: 1024
Flags: HW
LayerCount: 4
Fore
SplineSet
260 282 m 1
 381 368 l 1
 260 452 l 1
 260 282 l 1
631 255 m 0
 631 335 697 400 777 400 c 0
 857 400 924 335 924 255 c 0
 976 252 l 0
 976 360 890 460 778 460 c 0
 666 460 569 360 569 252 c 0
 631 255 l 0
419 318 m 0
 419 238 485 173 565 173 c 0
 645 173 712 238 712 318 c 0
 764 322 l 0
 764 214 678 114 566 114 c 0
 454 114 357 214 357 322 c 0
 419 318 l 0
43 378 m 0
 43 512 162 621 301 621 c 0
 440 621 551 512 551 378 c 0
 551 244 443 118 304 118 c 0
 165 118 43 244 43 378 c 0
120 374 m 0
 120 274 202 191 302 191 c 0
 402 191 485 274 485 374 c 0
 485 474 402 556 302 556 c 0
 202 556 120 474 120 374 c 0
EndSplineSet
Validated: 5
EndChar

StartChar: uni25BB
Encoding: 22 9659 22
Width: 1024
Flags: HW
LayerCount: 4
Fore
SplineSet
260 282 m 1
 381 368 l 1
 260 452 l 1
 260 282 l 1
631 255 m 0
 631 335 697 400 777 400 c 0
 857 400 924 335 924 255 c 0
 976 252 l 0
 976 360 890 460 778 460 c 0
 666 460 569 360 569 252 c 0
 631 255 l 0
419 318 m 0
 419 238 485 173 565 173 c 0
 645 173 712 238 712 318 c 0
 764 322 l 0
 764 214 678 114 566 114 c 0
 454 114 357 214 357 322 c 0
 419 318 l 0
43 378 m 0
 43 512 162 621 301 621 c 0
 440 621 551 512 551 378 c 0
 551 244 443 118 304 118 c 0
 165 118 43 244 43 378 c 0
120 374 m 0
 120 274 202 191 302 191 c 0
 402 191 485 274 485 374 c 0
 485 474 402 556 302 556 c 0
 202 556 120 474 120 374 c 0
EndSplineSet
Validated: 5
EndChar

StartChar: uni26ED
Encoding: 23 9965 23
Width: 1024
Flags: HW
LayerCount: 4
Fore
SplineSet
195 370 m 1
 239 370 l 1
 239 414 l 1
 195 414 l 1
 195 370 l 1
370 370 m 1
 414 370 l 1
 414 414 l 1
 370 414 l 1
 370 370 l 1
283 370 m 1
 326 370 l 1
 326 414 l 1
 283 414 l 1
 283 370 l 1
631 255 m 0
 631 335 697 400 777 400 c 0
 857 400 924 335 924 255 c 0
 976 252 l 0
 976 360 890 460 778 460 c 0
 666 460 569 360 569 252 c 0
 631 255 l 0
419 318 m 0
 419 238 485 173 565 173 c 0
 645 173 712 238 712 318 c 0
 764 322 l 0
 764 214 678 114 566 114 c 0
 454 114 357 214 357 322 c 0
 419 318 l 0
43 378 m 0
 43 512 162 621 301 621 c 0
 440 621 551 512 551 378 c 0
 551 244 443 118 304 118 c 0
 165 118 43 244 43 378 c 0
120 374 m 0
 120 274 202 191 302 191 c 0
 402 191 485 274 485 374 c 0
 485 474 402 556 302 556 c 0
 202 556 120 474 120 374 c 0
EndSplineSet
Validated: 5
EndChar

StartChar: NameMe.24
Encoding: 24 -1 24
Width: 1024
Flags: HW
LayerCount: 4
Fore
SplineSet
396 394 m 5
 333 400 l 5
 308 458 l 5
 284 400 l 5
 221 394 l 5
 269 353 l 5
 254 292 l 5
 308 325 l 5
 362 292 l 5
 348 353 l 5
 396 394 l 5
631 255 m 0
 631 335 697 400 777 400 c 0
 857 400 924 335 924 255 c 0
 976 252 l 0
 976 360 890 460 778 460 c 0
 666 460 569 360 569 252 c 0
 631 255 l 0
419 318 m 0
 419 238 485 173 565 173 c 0
 645 173 712 238 712 318 c 0
 764 322 l 0
 764 214 678 114 566 114 c 0
 454 114 357 214 357 322 c 0
 419 318 l 0
43 378 m 0
 43 512 162 621 301 621 c 0
 440 621 551 512 551 378 c 0
 551 244 443 118 304 118 c 0
 165 118 43 244 43 378 c 0
120 374 m 0
 120 274 202 191 302 191 c 0
 402 191 485 274 485 374 c 0
 485 474 402 556 302 556 c 0
 202 556 120 474 120 374 c 0
EndSplineSet
Validated: 5
EndChar

StartChar: NameMe.25
Encoding: 25 -1 25
Width: 1024
Flags: HW
LayerCount: 4
Fore
SplineSet
320 349 m 1
 333 344 345 344 358 348 c 128
 371 352 383 360 392 371 c 0
 404 385 408 400 406 418 c 128
 404 436 397 450 382 462 c 128
 367 474 351 479 333 477 c 128
 315 475 301 466 289 452 c 0
 280 441 276 429 275 415 c 128
 274 401 277 388 285 377 c 1
 269 356 l 1
 234 384 l 1
 207 350 l 1
 242 323 l 1
 228 305 l 1
 262 277 l 1
 320 349 l 1
319 429 m 0
 324 435 329 438 337 439 c 128
 345 440 352 438 358 433 c 128
 364 428 367 422 368 414 c 128
 369 406 367 399 362 393 c 128
 357 387 352 384 344 383 c 128
 336 382 329 384 323 389 c 128
 317 394 313 400 312 408 c 128
 311 416 314 423 319 429 c 0
631 255 m 0
 631 335 697 400 777 400 c 0
 857 400 924 335 924 255 c 0
 976 252 l 0
 976 360 890 460 778 460 c 0
 666 460 569 360 569 252 c 0
 631 255 l 0
419 318 m 0
 419 238 485 173 565 173 c 0
 645 173 712 238 712 318 c 0
 764 322 l 0
 764 214 678 114 566 114 c 0
 454 114 357 214 357 322 c 0
 419 318 l 0
43 378 m 0
 43 512 162 621 301 621 c 0
 440 621 551 512 551 378 c 0
 551 244 443 118 304 118 c 0
 165 118 43 244 43 378 c 0
120 374 m 0
 120 274 202 191 302 191 c 0
 402 191 485 274 485 374 c 0
 485 474 402 556 302 556 c 0
 202 556 120 474 120 374 c 0
EndSplineSet
Validated: 37
EndChar

StartChar: NameMe.26
Encoding: 26 -1 26
Width: 1024
Flags: HW
LayerCount: 4
Fore
SplineSet
324 407 m 1
 324 494 l 1
 281 494 l 1
 281 407 l 1
 237 407 l 1
 302 341 l 1
 368 407 l 1
 324 407 l 1
631 255 m 0
 631 335 697 400 777 400 c 0
 857 400 924 335 924 255 c 0
 976 252 l 0
 976 360 890 460 778 460 c 0
 666 460 569 360 569 252 c 0
 631 255 l 0
419 318 m 0
 419 238 485 173 565 173 c 0
 645 173 712 238 712 318 c 0
 764 322 l 0
 764 214 678 114 566 114 c 0
 454 114 357 214 357 322 c 0
 419 318 l 0
43 378 m 0
 43 512 162 621 301 621 c 0
 440 621 551 512 551 378 c 0
 551 244 443 118 304 118 c 0
 165 118 43 244 43 378 c 0
120 374 m 0
 120 274 202 191 302 191 c 0
 402 191 485 274 485 374 c 0
 485 474 402 556 302 556 c 0
 202 556 120 474 120 374 c 0
EndSplineSet
Validated: 5
EndChar

StartChar: NameMe.27
Encoding: 27 -1 27
Width: 1024
Flags: HW
LayerCount: 4
Fore
SplineSet
301 402 m 5
 388 402 l 5
 388 445 l 5
 301 445 l 5
 301 489 l 5
 236 424 l 5
 301 358 l 5
 301 402 l 5
631 255 m 0
 631 335 697 400 777 400 c 0
 857 400 924 335 924 255 c 0
 976 252 l 0
 976 360 890 460 778 460 c 0
 666 460 569 360 569 252 c 0
 631 255 l 0
419 318 m 0
 419 238 485 173 565 173 c 0
 645 173 712 238 712 318 c 0
 764 322 l 0
 764 214 678 114 566 114 c 0
 454 114 357 214 357 322 c 0
 419 318 l 0
43 378 m 0
 43 512 162 621 301 621 c 0
 440 621 551 512 551 378 c 0
 551 244 443 118 304 118 c 0
 165 118 43 244 43 378 c 0
120 374 m 0
 120 274 202 191 302 191 c 0
 402 191 485 274 485 374 c 0
 485 474 402 556 302 556 c 0
 202 556 120 474 120 374 c 0
EndSplineSet
Validated: 5
EndChar

StartChar: NameMe.28
Encoding: 28 -1 28
Width: 1024
Flags: HW
LayerCount: 4
Fore
SplineSet
303 439 m 1
 216 439 l 1
 216 396 l 1
 303 396 l 1
 303 352 l 1
 369 418 l 1
 303 483 l 1
 303 439 l 1
631 255 m 0
 631 335 697 400 777 400 c 0
 857 400 924 335 924 255 c 0
 976 252 l 0
 976 360 890 460 778 460 c 0
 666 460 569 360 569 252 c 0
 631 255 l 0
419 318 m 0
 419 238 485 173 565 173 c 0
 645 173 712 238 712 318 c 0
 764 322 l 0
 764 214 678 114 566 114 c 0
 454 114 357 214 357 322 c 0
 419 318 l 0
43 378 m 0
 43 512 162 621 301 621 c 0
 440 621 551 512 551 378 c 0
 551 244 443 118 304 118 c 0
 165 118 43 244 43 378 c 0
120 374 m 0
 120 274 202 191 302 191 c 0
 402 191 485 274 485 374 c 0
 485 474 402 556 302 556 c 0
 202 556 120 474 120 374 c 0
EndSplineSet
Validated: 5
EndChar

StartChar: NameMe.29
Encoding: 29 -1 29
Width: 1024
Flags: HW
LayerCount: 4
Fore
SplineSet
284 450 m 1
 284 362 l 1
 327 362 l 1
 327 450 l 1
 371 450 l 1
 305 515 l 1
 240 450 l 1
 284 450 l 1
631 255 m 0
 631 335 697 400 777 400 c 0
 857 400 924 335 924 255 c 0
 976 252 l 0
 976 360 890 460 778 460 c 0
 666 460 569 360 569 252 c 0
 631 255 l 0
419 318 m 0
 419 238 485 173 565 173 c 0
 645 173 712 238 712 318 c 0
 764 322 l 0
 764 214 678 114 566 114 c 0
 454 114 357 214 357 322 c 0
 419 318 l 0
43 378 m 0
 43 512 162 621 301 621 c 0
 440 621 551 512 551 378 c 0
 551 244 443 118 304 118 c 0
 165 118 43 244 43 378 c 0
120 374 m 0
 120 274 202 191 302 191 c 0
 402 191 485 274 485 374 c 0
 485 474 402 556 302 556 c 0
 202 556 120 474 120 374 c 0
EndSplineSet
Validated: 5
EndChar

StartChar: NameMe.42
Encoding: 42 -1 30
Width: 1024
Flags: HW
LayerCount: 4
Fore
SplineSet
236 376 m 5
 226 392 220 409 220 428 c 4
 220 455 230 479 249 498 c 132
 268 517 291 526 318 526 c 132
 345 526 369 517 388 498 c 132
 407 479 417 455 417 428 c 132
 417 401 407 377 388 358 c 132
 369 339 345 330 318 330 c 4
 300 330 283 335 267 345 c 5
 199 278 l 5
 168 308 l 5
 236 376 l 5
318 374 m 260
 333 374 346 379 357 390 c 132
 368 401 374 413 374 428 c 132
 374 443 368 455 357 466 c 132
 346 477 333 482 318 482 c 132
 303 482 291 477 280 466 c 132
 269 455 264 443 264 428 c 132
 264 413 269 401 280 390 c 132
 291 379 303 374 318 374 c 260
631 255 m 0
 631 335 697 400 777 400 c 0
 857 400 924 335 924 255 c 0
 976 252 l 0
 976 360 890 460 778 460 c 0
 666 460 569 360 569 252 c 0
 631 255 l 0
419 318 m 0
 419 238 485 173 565 173 c 0
 645 173 712 238 712 318 c 0
 764 322 l 0
 764 214 678 114 566 114 c 0
 454 114 357 214 357 322 c 0
 419 318 l 0
43 378 m 0
 43 512 162 621 301 621 c 0
 440 621 551 512 551 378 c 0
 551 244 443 118 304 118 c 0
 165 118 43 244 43 378 c 0
120 374 m 0
 120 274 202 191 302 191 c 0
 402 191 485 274 485 374 c 0
 485 474 402 556 302 556 c 0
 202 556 120 474 120 374 c 0
EndSplineSet
Validated: 5
EndChar

StartChar: NameMe.41
Encoding: 41 -1 31
Width: 1024
Flags: HW
LayerCount: 4
Fore
SplineSet
306 392 m 4
 312 392 318 390 322 386 c 132
 326 382 328 376 328 370 c 132
 328 364 326 358 322 354 c 132
 318 350 312 348 306 348 c 132
 300 348 294 350 290 354 c 132
 286 358 284 364 284 370 c 132
 284 376 286 382 290 386 c 132
 294 390 299 392 306 392 c 4
306 457 m 4
 277 457 250 449 226 433 c 132
 202 417 185 395 175 370 c 5
 185 344 202 323 226 307 c 132
 250 291 277 282 306 282 c 132
 335 282 362 291 386 307 c 132
 410 323 427 344 437 370 c 5
 427 395 410 417 386 433 c 132
 362 449 335 457 306 457 c 4
306 315 m 4
 290 315 278 320 267 331 c 132
 256 342 251 355 251 370 c 132
 251 385 256 398 267 409 c 132
 278 420 291 424 306 424 c 132
 321 424 334 420 345 409 c 132
 356 398 360 385 360 370 c 132
 360 355 356 342 345 331 c 132
 334 320 321 315 306 315 c 4
631 255 m 0
 631 335 697 400 777 400 c 0
 857 400 924 335 924 255 c 0
 976 252 l 0
 976 360 890 460 778 460 c 0
 666 460 569 360 569 252 c 0
 631 255 l 0
419 318 m 0
 419 238 485 173 565 173 c 0
 645 173 712 238 712 318 c 0
 764 322 l 0
 764 214 678 114 566 114 c 0
 454 114 357 214 357 322 c 0
 419 318 l 0
43 378 m 0
 43 512 162 621 301 621 c 0
 440 621 551 512 551 378 c 0
 551 244 443 118 304 118 c 0
 165 118 43 244 43 378 c 0
120 374 m 0
 120 274 202 191 302 191 c 0
 402 191 485 274 485 374 c 0
 485 474 402 556 302 556 c 0
 202 556 120 474 120 374 c 0
EndSplineSet
Validated: 5
EndChar

StartChar: NameMe.40
Encoding: 40 -1 32
Width: 1024
Flags: HW
LayerCount: 4
Fore
SplineSet
301 273 m 5
 289 285 l 5
 279 294 l 6
 256 317 239 332 231 342 c 4
 219 357 214 372 214 385 c 132
 214 398 218 409 228 419 c 132
 238 429 249 433 262 433 c 4
 270 433 277 432 284 429 c 132
 291 426 297 421 301 416 c 5
 306 421 311 426 318 429 c 132
 325 432 333 433 341 433 c 4
 354 433 365 429 375 420 c 132
 385 411 389 400 389 386 c 132
 389 372 383 357 371 342 c 4
 363 332 348 317 325 294 c 6
 314 285 l 5
 301 273 l 5
631 255 m 0
 631 335 697 400 777 400 c 0
 857 400 924 335 924 255 c 0
 976 252 l 0
 976 360 890 460 778 460 c 0
 666 460 569 360 569 252 c 0
 631 255 l 0
419 318 m 0
 419 238 485 173 565 173 c 0
 645 173 712 238 712 318 c 0
 764 322 l 0
 764 214 678 114 566 114 c 0
 454 114 357 214 357 322 c 0
 419 318 l 0
43 378 m 0
 43 512 162 621 301 621 c 0
 440 621 551 512 551 378 c 0
 551 244 443 118 304 118 c 0
 165 118 43 244 43 378 c 0
120 374 m 0
 120 274 202 191 302 191 c 0
 402 191 485 274 485 374 c 0
 485 474 402 556 302 556 c 0
 202 556 120 474 120 374 c 0
EndSplineSet
Validated: 5
EndChar

StartChar: NameMe.39
Encoding: 39 -1 33
Width: 1024
Flags: HW
LayerCount: 4
Fore
SplineSet
378 400 m 1
 330 400 l 1
 367 487 l 1
 258 487 l 1
 258 356 l 1
 301 356 l 1
 301 247 l 1
 378 400 l 1
631 255 m 0
 631 335 697 400 777 400 c 0
 857 400 924 335 924 255 c 0
 976 252 l 0
 976 360 890 460 778 460 c 0
 666 460 569 360 569 252 c 0
 631 255 l 0
419 318 m 0
 419 238 485 173 565 173 c 0
 645 173 712 238 712 318 c 0
 764 322 l 0
 764 214 678 114 566 114 c 0
 454 114 357 214 357 322 c 0
 419 318 l 0
43 378 m 0
 43 512 162 621 301 621 c 0
 440 621 551 512 551 378 c 0
 551 244 443 118 304 118 c 0
 165 118 43 244 43 378 c 0
120 374 m 0
 120 274 202 191 302 191 c 0
 402 191 485 274 485 374 c 0
 485 474 402 556 302 556 c 0
 202 556 120 474 120 374 c 0
EndSplineSet
Validated: 5
EndChar

StartChar: NameMe.52
Encoding: 52 -1 34
Width: 1024
Flags: HW
LayerCount: 4
Fore
SplineSet
631 255 m 4
 631 335 697 400 777 400 c 4
 857 400 924 335 924 255 c 4
 976 252 l 4
 976 360 890 460 778 460 c 4
 666 460 569 360 569 252 c 4
 631 255 l 4
419 318 m 4
 419 238 485 173 565 173 c 4
 645 173 712 238 712 318 c 4
 764 322 l 4
 764 214 678 114 566 114 c 4
 454 114 357 214 357 322 c 4
 419 318 l 4
43 378 m 4
 43 512 162 621 301 621 c 4
 440 621 551 512 551 378 c 4
 551 244 443 118 304 118 c 4
 165 118 43 244 43 378 c 4
120 374 m 4
 120 274 202 191 302 191 c 4
 402 191 485 274 485 374 c 4
 485 474 402 556 302 556 c 4
 202 556 120 474 120 374 c 4
EndSplineSet
Validated: 5
EndChar

StartChar: NameMe.53
Encoding: 53 -1 35
Width: 1024
Flags: HW
LayerCount: 4
Fore
SplineSet
631 255 m 4
 631 335 697 400 777 400 c 4
 857 400 924 335 924 255 c 4
 976 252 l 4
 976 360 890 460 778 460 c 4
 666 460 569 360 569 252 c 4
 631 255 l 4
419 318 m 4
 419 238 485 173 565 173 c 4
 645 173 712 238 712 318 c 4
 764 322 l 4
 764 214 678 114 566 114 c 4
 454 114 357 214 357 322 c 4
 419 318 l 4
43 378 m 4
 43 512 162 621 301 621 c 4
 440 621 551 512 551 378 c 4
 551 244 443 118 304 118 c 4
 165 118 43 244 43 378 c 4
120 374 m 4
 120 274 202 191 302 191 c 4
 402 191 485 274 485 374 c 4
 485 474 402 556 302 556 c 4
 202 556 120 474 120 374 c 4
EndSplineSet
Validated: 5
EndChar

StartChar: NameMe.54
Encoding: 54 -1 36
Width: 1024
Flags: HW
LayerCount: 4
Fore
SplineSet
631 255 m 4
 631 335 697 400 777 400 c 4
 857 400 924 335 924 255 c 4
 976 252 l 4
 976 360 890 460 778 460 c 4
 666 460 569 360 569 252 c 4
 631 255 l 4
419 318 m 4
 419 238 485 173 565 173 c 4
 645 173 712 238 712 318 c 4
 764 322 l 4
 764 214 678 114 566 114 c 4
 454 114 357 214 357 322 c 4
 419 318 l 4
43 378 m 4
 43 512 162 621 301 621 c 4
 440 621 551 512 551 378 c 4
 551 244 443 118 304 118 c 4
 165 118 43 244 43 378 c 4
120 374 m 4
 120 274 202 191 302 191 c 4
 402 191 485 274 485 374 c 4
 485 474 402 556 302 556 c 4
 202 556 120 474 120 374 c 4
EndSplineSet
Validated: 5
EndChar

StartChar: NameMe.43
Encoding: 43 -1 37
Width: 1024
Flags: HW
LayerCount: 4
Fore
SplineSet
305 500 m 4
 284 500 266 492 251 477 c 132
 236 462 228 444 228 423 c 4
 228 407 235 386 248 361 c 4
 258 343 270 325 285 305 c 6
 305 282 l 5
 325 305 l 6
 340 325 351 343 361 361 c 4
 374 386 381 407 381 423 c 4
 381 444 373 462 358 477 c 132
 343 492 325 500 305 500 c 4
305 395 m 260
 297 395 291 398 286 403 c 132
 281 408 279 414 279 421 c 132
 279 428 282 435 287 440 c 132
 292 445 299 447 305 447 c 132
 311 447 318 444 323 439 c 132
 328 434 331 427 332 421 c 132
 333 415 330 408 325 403 c 132
 320 398 313 395 305 395 c 260
631 255 m 0
 631 335 697 400 777 400 c 0
 857 400 924 335 924 255 c 0
 976 252 l 0
 976 360 890 460 778 460 c 0
 666 460 569 360 569 252 c 0
 631 255 l 0
419 318 m 0
 419 238 485 173 565 173 c 0
 645 173 712 238 712 318 c 0
 764 322 l 0
 764 214 678 114 566 114 c 0
 454 114 357 214 357 322 c 0
 419 318 l 0
43 378 m 0
 43 512 162 621 301 621 c 0
 440 621 551 512 551 378 c 0
 551 244 443 118 304 118 c 0
 165 118 43 244 43 378 c 0
120 374 m 0
 120 274 202 191 302 191 c 0
 402 191 485 274 485 374 c 0
 485 474 402 556 302 556 c 0
 202 556 120 474 120 374 c 0
EndSplineSet
Validated: 5
EndChar

StartChar: NameMe.30
Encoding: 30 -1 38
Width: 1024
Flags: HW
LayerCount: 4
Fore
SplineSet
389 396 m 2
 389 309 l 2
 389 309 387 298 383 294 c 128
 379 290 374 288 368 288 c 2
 258 288 l 2
 253 288 247 290 243 294 c 128
 239 298 237 303 237 309 c 2
 237 396 l 2
 237 402 239 408 243 412 c 128
 247 416 253 419 258 419 c 1
 258 429 l 2
 258 444 263 457 274 468 c 128
 285 479 298 484 313 484 c 128
 328 484 341 479 352 468 c 128
 363 457 368 444 368 429 c 2
 368 419 l 1
 374 419 379 416 383 412 c 128
 387 408 389 402 389 396 c 2
346 429 m 2
 346 439 342 447 336 453 c 128
 330 459 322 462 313 462 c 128
 304 462 296 459 290 453 c 128
 284 447 281 439 281 429 c 2
 281 419 l 1
 346 419 l 1
 346 429 l 2
631 255 m 0
 631 335 697 400 777 400 c 0
 857 400 924 335 924 255 c 0
 976 252 l 0
 976 360 890 460 778 460 c 0
 666 460 569 360 569 252 c 0
 631 255 l 0
419 318 m 0
 419 238 485 173 565 173 c 0
 645 173 712 238 712 318 c 0
 764 322 l 0
 764 214 678 114 566 114 c 0
 454 114 357 214 357 322 c 0
 419 318 l 0
43 378 m 0
 43 512 162 621 301 621 c 0
 440 621 551 512 551 378 c 0
 551 244 443 118 304 118 c 0
 165 118 43 244 43 378 c 0
120 374 m 0
 120 274 202 191 302 191 c 0
 402 191 485 274 485 374 c 0
 485 474 402 556 302 556 c 0
 202 556 120 474 120 374 c 0
EndSplineSet
Validated: 5
EndChar

StartChar: NameMe.31
Encoding: 31 -1 39
Width: 1024
Flags: HW
LayerCount: 4
Fore
SplineSet
393 374 m 1
 393 462 l 1
 368 436 l 1
 351 453 330 462 306 462 c 128
 282 462 262 453 245 436 c 128
 228 419 219 398 219 374 c 128
 219 350 228 329 245 312 c 128
 262 295 282 287 306 287 c 0
 324 287 341 292 356 302 c 128
 371 312 381 325 387 341 c 1
 350 341 l 1
 339 327 324 319 306 319 c 0
 291 319 279 324 268 335 c 128
 257 346 252 359 252 374 c 128
 252 389 257 402 268 413 c 128
 279 424 291 429 306 429 c 128
 321 429 334 424 345 413 c 1
 306 374 l 1
 393 374 l 1
631 255 m 0
 631 335 697 400 777 400 c 0
 857 400 924 335 924 255 c 0
 976 252 l 0
 976 360 890 460 778 460 c 0
 666 460 569 360 569 252 c 0
 631 255 l 0
419 318 m 0
 419 238 485 173 565 173 c 0
 645 173 712 238 712 318 c 0
 764 322 l 0
 764 214 678 114 566 114 c 0
 454 114 357 214 357 322 c 0
 419 318 l 0
43 378 m 0
 43 512 162 621 301 621 c 0
 440 621 551 512 551 378 c 0
 551 244 443 118 304 118 c 0
 165 118 43 244 43 378 c 0
120 374 m 0
 120 274 202 191 302 191 c 0
 402 191 485 274 485 374 c 0
 485 474 402 556 302 556 c 0
 202 556 120 474 120 374 c 0
EndSplineSet
Validated: 5
EndChar

StartChar: NameMe.32
Encoding: 32 -1 40
Width: 1024
Flags: HW
LayerCount: 4
Fore
SplineSet
293 483 m 1
 326 483 l 1
 326 374 l 1
 247 327 l 1
 230 353 l 1
 293 390 l 1
 293 483 l 1
631 255 m 0
 631 335 697 400 777 400 c 0
 857 400 924 335 924 255 c 0
 976 252 l 0
 976 360 890 460 778 460 c 0
 666 460 569 360 569 252 c 0
 631 255 l 0
419 318 m 0
 419 238 485 173 565 173 c 0
 645 173 712 238 712 318 c 0
 764 322 l 0
 764 214 678 114 566 114 c 0
 454 114 357 214 357 322 c 0
 419 318 l 0
43 378 m 0
 43 512 162 621 301 621 c 0
 440 621 551 512 551 378 c 0
 551 244 443 118 304 118 c 0
 165 118 43 244 43 378 c 0
120 374 m 0
 120 274 202 191 302 191 c 0
 402 191 485 274 485 374 c 0
 485 474 402 556 302 556 c 0
 202 556 120 474 120 374 c 0
EndSplineSet
Validated: 5
EndChar

StartChar: NameMe.33
Encoding: 33 -1 41
Width: 1024
Flags: HW
LayerCount: 4
Fore
SplineSet
282 275 m 1
 326 275 l 1
 326 319 l 1
 282 319 l 1
 282 275 l 1
282 495 m 1
 282 364 l 1
 326 364 l 1
 326 495 l 1
 282 495 l 1
631 255 m 0
 631 335 697 400 777 400 c 0
 857 400 924 335 924 255 c 0
 976 252 l 0
 976 360 890 460 778 460 c 0
 666 460 569 360 569 252 c 0
 631 255 l 0
419 318 m 0
 419 238 485 173 565 173 c 0
 645 173 712 238 712 318 c 0
 764 322 l 0
 764 214 678 114 566 114 c 0
 454 114 357 214 357 322 c 0
 419 318 l 0
43 378 m 0
 43 512 162 621 301 621 c 0
 440 621 551 512 551 378 c 0
 551 244 443 118 304 118 c 0
 165 118 43 244 43 378 c 0
120 374 m 0
 120 274 202 191 302 191 c 0
 402 191 485 274 485 374 c 0
 485 474 402 556 302 556 c 0
 202 556 120 474 120 374 c 0
EndSplineSet
Validated: 5
EndChar

StartChar: NameMe.34
Encoding: 34 -1 42
Width: 1024
Flags: HW
LayerCount: 4
Fore
SplineSet
365 402 m 2
 270 402 l 1
 270 457 l 2
 270 465 274 472 280 477 c 128
 286 482 295 485 304 485 c 128
 313 485 321 482 327 477 c 128
 333 472 336 465 336 457 c 2
 336 445 l 1
 365 445 l 1
 365 457 l 2
 365 472 359 484 346 495 c 128
 333 506 319 511 303 511 c 128
 287 511 273 506 261 495 c 128
 249 484 243 472 243 457 c 2
 243 402 l 1
 236 402 229 399 224 394 c 128
 219 389 216 383 216 376 c 2
 216 299 l 2
 216 291 219 285 224 280 c 128
 229 275 236 271 243 271 c 2
 362 271 l 2
 370 271 376 274 382 279 c 128
 388 284 391 290 391 297 c 2
 391 374 l 2
 391 382 388 388 383 394 c 128
 378 400 372 402 365 402 c 2
631 255 m 0
 631 335 697 400 777 400 c 0
 857 400 924 335 924 255 c 0
 976 252 l 0
 976 360 890 460 778 460 c 0
 666 460 569 360 569 252 c 0
 631 255 l 0
419 318 m 0
 419 238 485 173 565 173 c 0
 645 173 712 238 712 318 c 0
 764 322 l 0
 764 214 678 114 566 114 c 0
 454 114 357 214 357 322 c 0
 419 318 l 0
43 378 m 0
 43 512 162 621 301 621 c 0
 440 621 551 512 551 378 c 0
 551 244 443 118 304 118 c 0
 165 118 43 244 43 378 c 0
120 374 m 0
 120 274 202 191 302 191 c 0
 402 191 485 274 485 374 c 0
 485 474 402 556 302 556 c 0
 202 556 120 474 120 374 c 0
EndSplineSet
Validated: 5
EndChar

StartChar: NameMe.35
Encoding: 35 -1 43
Width: 1024
Flags: HW
LayerCount: 4
Fore
SplineSet
419 710 m 1
 299 775 l 1
 178 710 l 1
 299 644 l 1
 419 710 l 1
222 665 m 1
 222 621 l 1
 299 579 l 1
 375 621 l 1
 375 665 l 1
 299 623 l 1
 222 665 l 1
631 255 m 0
 631 335 697 400 777 400 c 0
 857 400 924 335 924 255 c 0
 976 252 l 0
 976 360 890 460 778 460 c 0
 666 460 569 360 569 252 c 0
 631 255 l 0
419 318 m 0
 419 238 485 173 565 173 c 0
 645 173 712 238 712 318 c 0
 764 322 l 0
 764 214 678 114 566 114 c 0
 454 114 357 214 357 322 c 0
 419 318 l 0
43 378 m 0
 43 512 162 621 301 621 c 0
 440 621 551 512 551 378 c 0
 551 244 443 118 304 118 c 0
 165 118 43 244 43 378 c 0
120 374 m 0
 120 274 202 191 302 191 c 0
 402 191 485 274 485 374 c 0
 485 474 402 556 302 556 c 0
 202 556 120 474 120 374 c 0
EndSplineSet
Validated: 5
EndChar

StartChar: NameMe.36
Encoding: 36 -1 44
Width: 1024
Flags: HW
LayerCount: 4
Fore
SplineSet
419 445 m 1
 299 511 l 1
 178 445 l 1
 299 380 l 1
 419 445 l 1
222 400 m 1
 222 356 l 1
 299 314 l 1
 375 356 l 1
 375 400 l 1
 299 358 l 1
 222 400 l 1
631 255 m 0
 631 335 697 400 777 400 c 0
 857 400 924 335 924 255 c 0
 976 252 l 0
 976 360 890 460 778 460 c 0
 666 460 569 360 569 252 c 0
 631 255 l 0
419 318 m 0
 419 238 485 173 565 173 c 0
 645 173 712 238 712 318 c 0
 764 322 l 0
 764 214 678 114 566 114 c 0
 454 114 357 214 357 322 c 0
 419 318 l 0
43 378 m 0
 43 512 162 621 301 621 c 0
 440 621 551 512 551 378 c 0
 551 244 443 118 304 118 c 0
 165 118 43 244 43 378 c 0
120 374 m 0
 120 274 202 191 302 191 c 0
 402 191 485 274 485 374 c 0
 485 474 402 556 302 556 c 0
 202 556 120 474 120 374 c 0
EndSplineSet
Validated: 5
EndChar

StartChar: NameMe.37
Encoding: 37 -1 45
Width: 1024
Flags: HW
LayerCount: 4
Fore
SplineSet
154 392 m 1
 199 392 l 1
 203 411 211 428 224 443 c 128
 237 458 253 468 271 474 c 128
 289 480 309 481 328 477 c 0
 343 474 358 468 372 458 c 1
 340 426 l 1
 330 433 318 436 306 436 c 0
 292 436 280 432 269 424 c 128
 258 416 250 405 245 392 c 1
 285 392 l 1
 219 327 l 1
 154 392 l 1
414 348 m 1
 410 329 401 312 388 298 c 128
 375 284 359 273 341 267 c 128
 323 261 304 259 285 263 c 0
 269 266 255 273 241 283 c 1
 272 314 l 1
 282 308 294 305 306 305 c 0
 320 305 332 309 344 317 c 128
 356 325 364 335 368 348 c 1
 328 348 l 1
 393 414 l 1
 459 348 l 1
 414 348 l 1
631 255 m 0
 631 335 697 400 777 400 c 0
 857 400 924 335 924 255 c 0
 976 252 l 0
 976 360 890 460 778 460 c 0
 666 460 569 360 569 252 c 0
 631 255 l 0
419 318 m 0
 419 238 485 173 565 173 c 0
 645 173 712 238 712 318 c 0
 764 322 l 0
 764 214 678 114 566 114 c 0
 454 114 357 214 357 322 c 0
 419 318 l 0
43 378 m 0
 43 512 162 621 301 621 c 0
 440 621 551 512 551 378 c 0
 551 244 443 118 304 118 c 0
 165 118 43 244 43 378 c 0
120 374 m 0
 120 274 202 191 302 191 c 0
 402 191 485 274 485 374 c 0
 485 474 402 556 302 556 c 0
 202 556 120 474 120 374 c 0
EndSplineSet
Validated: 37
EndChar

StartChar: NameMe.38
Encoding: 38 -1 46
Width: 1024
Flags: HW
LayerCount: 4
Fore
SplineSet
186 395 m 1
 274 395 l 1
 274 439 l 1
 406 374 l 1
 317 374 l 1
 317 330 l 1
 186 395 l 1
631 255 m 0
 631 335 697 400 777 400 c 0
 857 400 924 335 924 255 c 0
 976 252 l 0
 976 360 890 460 778 460 c 0
 666 460 569 360 569 252 c 0
 631 255 l 0
419 318 m 0
 419 238 485 173 565 173 c 0
 645 173 712 238 712 318 c 0
 764 322 l 0
 764 214 678 114 566 114 c 0
 454 114 357 214 357 322 c 0
 419 318 l 0
43 378 m 0
 43 512 162 621 301 621 c 0
 440 621 551 512 551 378 c 0
 551 244 443 118 304 118 c 0
 165 118 43 244 43 378 c 0
120 374 m 0
 120 274 202 191 302 191 c 0
 402 191 485 274 485 374 c 0
 485 474 402 556 302 556 c 0
 202 556 120 474 120 374 c 0
EndSplineSet
Validated: 5
EndChar

StartChar: NameMe.51
Encoding: 51 -1 47
Width: 1024
Flags: HW
LayerCount: 4
Fore
SplineSet
631 255 m 4
 631 335 697 400 777 400 c 4
 857 400 924 335 924 255 c 4
 976 252 l 4
 976 360 890 460 778 460 c 4
 666 460 569 360 569 252 c 4
 631 255 l 4
419 318 m 4
 419 238 485 173 565 173 c 4
 645 173 712 238 712 318 c 4
 764 322 l 4
 764 214 678 114 566 114 c 4
 454 114 357 214 357 322 c 4
 419 318 l 4
43 378 m 4
 43 512 162 621 301 621 c 4
 440 621 551 512 551 378 c 4
 551 244 443 118 304 118 c 4
 165 118 43 244 43 378 c 4
120 374 m 4
 120 274 202 191 302 191 c 4
 402 191 485 274 485 374 c 4
 485 474 402 556 302 556 c 4
 202 556 120 474 120 374 c 4
EndSplineSet
Validated: 5
EndChar

StartChar: NameMe.50
Encoding: 50 -1 48
Width: 1024
Flags: HW
LayerCount: 4
Fore
SplineSet
631 255 m 4
 631 335 697 400 777 400 c 4
 857 400 924 335 924 255 c 4
 976 252 l 4
 976 360 890 460 778 460 c 4
 666 460 569 360 569 252 c 4
 631 255 l 4
419 318 m 4
 419 238 485 173 565 173 c 4
 645 173 712 238 712 318 c 4
 764 322 l 4
 764 214 678 114 566 114 c 4
 454 114 357 214 357 322 c 4
 419 318 l 4
43 378 m 4
 43 512 162 621 301 621 c 4
 440 621 551 512 551 378 c 4
 551 244 443 118 304 118 c 4
 165 118 43 244 43 378 c 4
120 374 m 4
 120 274 202 191 302 191 c 4
 402 191 485 274 485 374 c 4
 485 474 402 556 302 556 c 4
 202 556 120 474 120 374 c 4
EndSplineSet
Validated: 5
EndChar

StartChar: NameMe.49
Encoding: 49 -1 49
Width: 1024
Flags: HW
LayerCount: 4
Fore
SplineSet
631 255 m 4
 631 335 697 400 777 400 c 4
 857 400 924 335 924 255 c 4
 976 252 l 4
 976 360 890 460 778 460 c 4
 666 460 569 360 569 252 c 4
 631 255 l 4
419 318 m 4
 419 238 485 173 565 173 c 4
 645 173 712 238 712 318 c 4
 764 322 l 4
 764 214 678 114 566 114 c 4
 454 114 357 214 357 322 c 4
 419 318 l 4
43 378 m 4
 43 512 162 621 301 621 c 4
 440 621 551 512 551 378 c 4
 551 244 443 118 304 118 c 4
 165 118 43 244 43 378 c 4
120 374 m 4
 120 274 202 191 302 191 c 4
 402 191 485 274 485 374 c 4
 485 474 402 556 302 556 c 4
 202 556 120 474 120 374 c 4
EndSplineSet
Validated: 5
EndChar

StartChar: NameMe.48
Encoding: 48 -1 50
Width: 1024
Flags: HW
LayerCount: 4
Fore
SplineSet
631 255 m 4
 631 335 697 400 777 400 c 4
 857 400 924 335 924 255 c 4
 976 252 l 4
 976 360 890 460 778 460 c 4
 666 460 569 360 569 252 c 4
 631 255 l 4
419 318 m 4
 419 238 485 173 565 173 c 4
 645 173 712 238 712 318 c 4
 764 322 l 4
 764 214 678 114 566 114 c 4
 454 114 357 214 357 322 c 4
 419 318 l 4
43 378 m 4
 43 512 162 621 301 621 c 4
 440 621 551 512 551 378 c 4
 551 244 443 118 304 118 c 4
 165 118 43 244 43 378 c 4
120 374 m 4
 120 274 202 191 302 191 c 4
 402 191 485 274 485 374 c 4
 485 474 402 556 302 556 c 4
 202 556 120 474 120 374 c 4
EndSplineSet
Validated: 5
EndChar

StartChar: NameMe.47
Encoding: 47 -1 51
Width: 1024
Flags: HW
LayerCount: 4
Fore
SplineSet
631 255 m 4
 631 335 697 400 777 400 c 4
 857 400 924 335 924 255 c 4
 976 252 l 4
 976 360 890 460 778 460 c 4
 666 460 569 360 569 252 c 4
 631 255 l 4
419 318 m 4
 419 238 485 173 565 173 c 4
 645 173 712 238 712 318 c 4
 764 322 l 4
 764 214 678 114 566 114 c 4
 454 114 357 214 357 322 c 4
 419 318 l 4
43 378 m 4
 43 512 162 621 301 621 c 4
 440 621 551 512 551 378 c 4
 551 244 443 118 304 118 c 4
 165 118 43 244 43 378 c 4
120 374 m 4
 120 274 202 191 302 191 c 4
 402 191 485 274 485 374 c 4
 485 474 402 556 302 556 c 4
 202 556 120 474 120 374 c 4
EndSplineSet
Validated: 5
EndChar

StartChar: NameMe.46
Encoding: 46 -1 52
Width: 1024
Flags: HW
LayerCount: 4
Fore
SplineSet
631 255 m 4
 631 335 697 400 777 400 c 4
 857 400 924 335 924 255 c 4
 976 252 l 4
 976 360 890 460 778 460 c 4
 666 460 569 360 569 252 c 4
 631 255 l 4
419 318 m 4
 419 238 485 173 565 173 c 4
 645 173 712 238 712 318 c 4
 764 322 l 4
 764 214 678 114 566 114 c 4
 454 114 357 214 357 322 c 4
 419 318 l 4
43 378 m 4
 43 512 162 621 301 621 c 4
 440 621 551 512 551 378 c 4
 551 244 443 118 304 118 c 4
 165 118 43 244 43 378 c 4
120 374 m 4
 120 274 202 191 302 191 c 4
 402 191 485 274 485 374 c 4
 485 474 402 556 302 556 c 4
 202 556 120 474 120 374 c 4
EndSplineSet
Validated: 5
EndChar

StartChar: NameMe.45
Encoding: 45 -1 53
Width: 1024
Flags: HW
LayerCount: 4
Fore
SplineSet
631 255 m 4
 631 335 697 400 777 400 c 4
 857 400 924 335 924 255 c 4
 976 252 l 4
 976 360 890 460 778 460 c 4
 666 460 569 360 569 252 c 4
 631 255 l 4
419 318 m 4
 419 238 485 173 565 173 c 4
 645 173 712 238 712 318 c 4
 764 322 l 4
 764 214 678 114 566 114 c 4
 454 114 357 214 357 322 c 4
 419 318 l 4
43 378 m 4
 43 512 162 621 301 621 c 4
 440 621 551 512 551 378 c 4
 551 244 443 118 304 118 c 4
 165 118 43 244 43 378 c 4
120 374 m 4
 120 274 202 191 302 191 c 4
 402 191 485 274 485 374 c 4
 485 474 402 556 302 556 c 4
 202 556 120 474 120 374 c 4
EndSplineSet
Validated: 5
EndChar

StartChar: NameMe.44
Encoding: 44 -1 54
Width: 1024
Flags: HW
LayerCount: 4
Fore
SplineSet
631 255 m 4
 631 335 697 400 777 400 c 4
 857 400 924 335 924 255 c 4
 976 252 l 4
 976 360 890 460 778 460 c 4
 666 460 569 360 569 252 c 4
 631 255 l 4
419 318 m 4
 419 238 485 173 565 173 c 4
 645 173 712 238 712 318 c 4
 764 322 l 4
 764 214 678 114 566 114 c 4
 454 114 357 214 357 322 c 4
 419 318 l 4
43 378 m 4
 43 512 162 621 301 621 c 4
 440 621 551 512 551 378 c 4
 551 244 443 118 304 118 c 4
 165 118 43 244 43 378 c 4
120 374 m 4
 120 274 202 191 302 191 c 4
 402 191 485 274 485 374 c 4
 485 474 402 556 302 556 c 4
 202 556 120 474 120 374 c 4
EndSplineSet
Validated: 5
EndChar
